<?xml version="1.0" encoding="UTF-8" standalone="no"?>
<!-- Created with Inkscape (http://www.inkscape.org/) -->

<svg
   xmlns:dc="http://purl.org/dc/elements/1.1/"
   xmlns:cc="http://creativecommons.org/ns#"
   xmlns:rdf="http://www.w3.org/1999/02/22-rdf-syntax-ns#"
   xmlns:svg="http://www.w3.org/2000/svg"
   xmlns="http://www.w3.org/2000/svg"
   xmlns:sodipodi="http://sodipodi.sourceforge.net/DTD/sodipodi-0.dtd"
   xmlns:inkscape="http://www.inkscape.org/namespaces/inkscape"
   width="6.208889mm"
   height="5.6444445mm"
   viewBox="0 0 22 20"
   id="svg2"
   version="1.1"
   inkscape:version="0.91 r13725"
   sodipodi:docname="thumb-up.svg">
  <defs
     id="defs4" />
  <sodipodi:namedview
     id="base"
     pagecolor="#ffffff"
     bordercolor="#666666"
     borderopacity="1.0"
     inkscape:pageopacity="0.0"
     inkscape:pageshadow="2"
     inkscape:zoom="0.35"
     inkscape:cx="81.714287"
     inkscape:cy="-504.28571"
     inkscape:document-units="px"
     inkscape:current-layer="layer1"
     showgrid="false"
     fit-margin-top="0"
     fit-margin-left="0"
     fit-margin-right="0"
     fit-margin-bottom="0"
     inkscape:window-width="1243"
     inkscape:window-height="755"
     inkscape:window-x="37"
     inkscape:window-y="641"
     inkscape:window-maximized="1" />
  <metadata
     id="metadata7">
    <rdf:RDF>
      <cc:Work
         rdf:about="">
        <dc:format>image/svg+xml</dc:format>
        <dc:type
           rdf:resource="http://purl.org/dc/dcmitype/StillImage" />
        <dc:title></dc:title>
      </cc:Work>
    </rdf:RDF>
  </metadata>
  <g
     inkscape:label="Layer 1"
     inkscape:groupmode="layer"
     id="layer1"
     transform="translate(159.57143,-8.0764904)">
    <g
       style="display:block;fill:#ececec"
       id="g4217"
       transform="translate(-160.57143,7.0764904)">
      <g
         id="g4207"
         style="fill:#ececec">
        <path
           id="path4209"
           d="M 1,21 5,21 5,9 1,9 1,21 Z M 23,10 C 23,8.9 22.1,8 21,8 L 14.69,8 15.64,3.43 15.67,3.11 C 15.67,2.7 15.5,2.32 15.23,2.05 L 14.17,1 7.59,7.59 C 7.22,7.95 7,8.45 7,9 l 0,10 c 0,1.1 0.9,2 2,2 l 9,0 c 0.83,0 1.54,-0.5 1.84,-1.22 l 3.02,-7.05 C 22.95,12.5 23,12.26 23,12 L 23,10.09 22.99,10.08 23,10 Z"
           inkscape:connector-curvature="0"
           style="fill:#ececec" />
      </g>
    </g>
  </g>
</svg>
