<?xml version="1.0" encoding="UTF-8" standalone="no"?>
<!-- Created with Inkscape (http://www.inkscape.org/) -->

<svg
   xmlns:dc="http://purl.org/dc/elements/1.1/"
   xmlns:cc="http://creativecommons.org/ns#"
   xmlns:rdf="http://www.w3.org/1999/02/22-rdf-syntax-ns#"
   xmlns:svg="http://www.w3.org/2000/svg"
   xmlns="http://www.w3.org/2000/svg"
   xmlns:sodipodi="http://sodipodi.sourceforge.net/DTD/sodipodi-0.dtd"
   xmlns:inkscape="http://www.inkscape.org/namespaces/inkscape"
   width="5.0796566mm"
   height="5.0799999mm"
   viewBox="0 0 17.998783 18"
   id="svg2"
   version="1.1"
   inkscape:version="0.91 r13725"
   sodipodi:docname="update.svg">
  <defs
     id="defs4" />
  <sodipodi:namedview
     id="base"
     pagecolor="#ffffff"
     bordercolor="#666666"
     borderopacity="1.0"
     inkscape:pageopacity="0.0"
     inkscape:pageshadow="2"
     inkscape:zoom="11.2"
     inkscape:cx="-4.4304612"
     inkscape:cy="-7.2550001"
     inkscape:document-units="px"
     inkscape:current-layer="layer1"
     showgrid="false"
     fit-margin-top="0"
     fit-margin-left="0"
     fit-margin-right="0"
     fit-margin-bottom="0"
     inkscape:window-width="1243"
     inkscape:window-height="755"
     inkscape:window-x="37"
     inkscape:window-y="641"
     inkscape:window-maximized="1" />
  <metadata
     id="metadata7">
    <rdf:RDF>
      <cc:Work
         rdf:about="">
        <dc:format>image/svg+xml</dc:format>
        <dc:type
           rdf:resource="http://purl.org/dc/dcmitype/StillImage" />
        <dc:title />
      </cc:Work>
    </rdf:RDF>
  </metadata>
  <g
     inkscape:label="Layer 1"
     inkscape:groupmode="layer"
     id="layer1"
     transform="translate(230.51224,7.17851)">
    <g
       style="display:block;fill:#ececec"
       id="g4373"
       transform="translate(-233.51346,-10.17851)">
      <g
         id="g4363"
         style="fill:#ececec">
        <path
           id="path4365"
           d="m 21,10.12 -6.78,0 2.74,-2.82 C 14.23,4.6 9.81,4.5 7.08,7.2 c -2.73,2.71 -2.73,7.08 0,9.79 2.73,2.71 7.15,2.71 9.88,0 C 18.32,15.65 19,14.08 19,12.1 l 2,0 c 0,1.98 -0.88,4.55 -2.64,6.29 -3.51,3.48 -9.21,3.48 -12.72,0 C 2.14,14.92 2.11,9.28 5.62,5.81 9.13,2.34 14.76,2.34 18.27,5.81 L 21,3 21,10.12 Z M 12.5,8 l 0,4.25 3.5,2.08 -0.72,1.21 L 11,13 11,8 12.5,8 Z"
           inkscape:connector-curvature="0"
           style="fill:#ececec" />
      </g>
    </g>
  </g>
</svg>
